# xmcd CD database file
# Copyright (C) 1993-1998 Ti Kan
#
# Track frame offsets:
#	150
#	13390
#	27047
#	42630
#	54472
#	65697
#	77887
#	89405
#	101975
#	113385
#	127642
#	140085
#	153857
#	172465
#	184792
#	202930
#	216670
#	241020
#	250122
#	263250
#
# Disc length: 3795 seconds
#
# Revision: 1
# Processed by: cddbd v1.4b41PL1 Copyright (c) Steve Scherf et al.
# Submitted via: NotifyCDPlayer(CDDB) 1.51.3
#
DISCID=180ed114
DTITLE=Bobby Bare - Greatest Hits
DYEAR=1900
DGENRE=
TTITLE0=Detroit City
TTITLE1=Miller's Cave
TTITLE2=(Margie's At) The Lincoln Park Inn
TTITLE3=Come Sundown (She'll Be Gone)
TTITLE4=Please Don't Tell Me How The Story Ends
TTITLE5=Streets Of Baltimore
TTITLE6=Shame On Me
TTITLE7=Four Strong Winds
TTITLE8=Daddy What If
TTITLE9=All American Boy
TTITLE10=Five Hundred Miles
TTITLE11=Ride Me Down Easy
TTITLE12=Tequila Sheila
TTITLE13=Green Green Grass Of Home
TTITLE14=The Jogger
TTITLE15=Marie Laveau
TTITLE16=The Winner
TTITLE17=Drop Kick Me Jesus
TTITLE18=The Mermaid Song
TTITLE19=Numbers
EXTD=
EXTT0=
EXTT1=
EXTT2=
EXTT3=
EXTT4=
EXTT5=
EXTT6=
EXTT7=
EXTT8=
EXTT9=
EXTT10=
EXTT11=
EXTT12=
EXTT13=
EXTT14=
EXTT15=
EXTT16=
EXTT17=
EXTT18=
EXTT19=
PLAYORDER=
